<svg xmlns="http://www.w3.org/2000/svg" width="752" height="32"><svg width="53" height="32" viewBox="0 0 53 32"><path fill="none" stroke="#000" stroke-width="7.111" d="M49.778 5.333V16H7.111m0 0L19.555 3.556M7.111 16l12.444 12.444"/></svg><svg width="48" height="32" x="96" viewBox="0 0 48 32"><path d="M0 32h48v-5.333H0V32zm0-13.333h48v-5.333H0v5.333zM0 0v5.333h48V0H0z"/></svg><svg width="29" height="32" x="192" viewBox="0 0 29 32"><path fill="#9b9faa" d="M25.6 3.2H24V0h-3.2v3.2H8V0H4.8v3.2H3.2A3.185 3.185 0 0 0 .016 6.4L0 28.8A3.2 3.2 0 0 0 3.2 32h22.4c1.76 0 3.2-1.44 3.2-3.2V6.4c0-1.76-1.44-3.2-3.2-3.2zm0 25.6H3.2V11.2h22.4v17.6z"/></svg><svg width="32" height="32" x="240" viewBox="0 0 32 32"><path fill="#fff" stroke="#e0e0e0" stroke-width="1.454" d="M30.545 16c0 8.033-6.512 14.545-14.545 14.545S1.455 24.033 1.455 16C1.455 7.967 7.967 1.455 16 1.455S30.545 7.967 30.545 16z"/></svg><svg width="32" height="32" x="288" viewBox="0 0 32 32"><path fill="none" stroke="#9b9faa" stroke-width="4.571" d="m2.286 2.286 27.429 27.429M2.286 29.714 29.715 2.285"/></svg><svg width="32" height="32" x="336" viewBox="0 0 32 32"><path fill="none" stroke="#000" stroke-width="4" d="m2 2 28 28M2 30 30 2"/></svg></svg>